#!OML:ASF E:\Steps\Project 1\Capture day 1\Session 2\Subject.ASF
:FULLY-SPECIFIED
:DEGREES
263
root 8.5507 16.142 22.5032 -156.709 1.86361 178.568
lowerback -22.8461 -3.20654 -6.19093
upperback 1.98357 -2.35704 -0.336551
thorax 15.491 -1.51133 2.32317
lowerneck 1.43599 -4.49997 -2.74886
upperneck 9.80778 -6.05066 6.14913
head 3.23446 -2.7294 2.36285
rclavicle -9.14409e-015 1.66979e-014
rhumerus -39.7626 -20.752 -73.187
rradius 29.4362
rwrist 2.74452
rhand -7.29888 -52.2915
rfingers 7.12502
rthumb 18.5833 -81.4239
lclavicle -9.14409e-015 1.66979e-014
lhumerus -21.6595 2.04525 79.8188
lradius 32.9198
lwrist 2.2412
lhand -22.4571 -13.6441
lfingers 7.12502
lthumb 3.96733 16.2987
rfemur -49.4375 2.14339 15.5751
rtibia 27.9906
rfoot -14.2422 -14.4175
rtoes -37.5194
lfemur -17.3627 -10.1396 -23.3788
ltibia 12.061
lfoot -13.5442 -0.231123
ltoes -37.0074
264
root 8.55475 16.1172 22.3843 -156.862 1.62434 178.224
lowerback -23.0704 -3.41088 -6.46456
upperback 2.14403 -2.53053 -0.341902
thorax 15.8513 -1.62266 2.39603
lowerneck 1.39538 -4.43104 -2.82921
upperneck 9.6993 -5.96659 6.22965
head 3.20704 -2.69268 2.4061
rclavicle 2.68359e-014 3.02153e-014
rhumerus -39.9326 -21.1946 -72.8201
rradius 28.9588
rwrist 3.26858
rhand -7.50077 -52.0796
rfingers 7.12502
rthumb 18.3891 -81.2304
lclavicle 2.68359e-014 3.02153e-014
lhumerus -21.4985 1.4763 80.0435
lradius 33.181
lwrist 1.70549
lhand -23.8732 -13.2634
lfingers 7.12502
lthumb 2.59981 16.7005
rfemur -48.8577 2.0679 15.0565
rtibia 25.3714
rfoot -13.6408 -13.5775
rtoes -38.2673
lfemur -16.5593 -10.3117 -23.9333
ltibia 11.9385
lfoot -13.7467 -0.503229
ltoes -35.9788
265
root 8.56014 16.0964 22.2767 -156.862 1.43846 178.141
lowerback -22.8423 -3.50865 -6.45124
upperback 1.9546 -2.68643 -0.306981
thorax 15.5037 -1.67932 2.38597
lowerneck 1.28489 -4.38946 -2.78662
upperneck 10.1219 -5.89116 6.03743
head 3.35936 -2.64184 2.33534
rclavicle 8.15017e-015 2.38542e-015
rhumerus -40.6445 -21.4817 -72.3584
rradius 28.6663
rwrist 3.41427
rhand -7.72057 -52.2473
rfingers 7.12502
rthumb 18.1777 -81.4179
lclavicle 8.15017e-015 2.38542e-015
lhumerus -21.7886 1.15999 80.0999
lradius 33.4657
lwrist 1.73278
lhand -24.0043 -13.2191
lfingers 7.12502
lthumb 2.47323 16.7463
rfemur -48.7222 2.32857 14.6176
rtibia 23.3339
rfoot -13.3921 -12.744
rtoes -38.2442
lfemur -16.1306 -10.5281 -24.0652
ltibia 12.0265
lfoot -13.9945 -0.429746
ltoes -35.9907
266
root 8.57133 16.083 22.1732 -156.968 1.23004 178.25
lowerback -23.2354 -3.57705 -6.37941
upperback 2.27729 -2.79158 -0.204739
thorax 16.1411 -1.75201 2.39845
lowerneck 1.04782 -4.39298 -2.67542
upperneck 10.0029 -5.90567 5.98464
head 3.35591 -2.65261 2.29196
rclavicle -1.49089e-014 -1.47101e-014
rhumerus -40.3966 -22.1841 -72.1821
rradius 28.1401
rwrist 3.31584
rhand -8.31279 -52.4579
rfingers 7.12502
rthumb 17.6079 -81.6806
lclavicle -1.49089e-014 -1.47101e-014
lhumerus -21.1176 1.581 80.0194
lradius 33.6229
lwrist 2.33804
lhand -22.3822 -13.7717
lfingers 7.12502
lthumb 4.03967 16.1697
rfemur -48.2187 2.72704 14.409
rtibia 20.9113
rfoot -13.1044 -11.985
rtoes -38.4057
lfemur -15.6805 -10.3932 -23.9417
ltibia 12.1854
lfoot -14.2005 -0.620368
ltoes -36.272
267
root 8.58212 16.0709 22.0688 -157.11 0.86217 178.238
lowerback -22.9416 -3.67671 -6.28192
upperback 2.2201 -2.98267 -0.175323
thorax 15.9122 -1.82571 2.31847
lowerneck 1.25798 -4.43621 -2.71491
upperneck 9.85967 -5.97415 6.23594
head 3.28396 -2.68361 2.38572
rclavicle -4.31363e-014 -1.27222e-014
rhumerus -41.0241 -23.2067 -71.3149
rradius 27.4389
rwrist 4.72209
rhand -7.63133 -52.468
rfingers 7.12502
rthumb 18.2635 -81.6306
lclavicle -4.31363e-014 -1.27222e-014
lhumerus -21.3193 1.03701 80.1221
lradius 33.5812
lwrist 1.17366
lhand -24.587 -14.752
lfingers 7.12502
lthumb 1.91047 15.2192
rfemur -47.0292 3.03773 14.0261
rtibia 17.5057
rfoot -12.3995 -11.4799
rtoes -38.1219
lfemur -15.3185 -10.3253 -23.915
ltibia 12.5879
lfoot -14.4023 -1.03378
ltoes -35.6021
268
root 8.5953 16.0561 21.9641 -157.18 0.538962 178.181
lowerback -22.7054 -3.77145 -6.22375
upperback 2.14967 -3.14275 -0.180147
thorax 15.6988 -1.88606 2.23252
lowerneck 1.51713 -4.6148 -2.64716
upperneck 9.48803 -6.22458 6.42541
head 3.12727 -2.81451 2.43366
rclavicle 3.77691e-015 3.97569e-016
rhumerus -41.5326 -23.7147 -70.9171
rradius 27.0199
rwrist 4.85959
rhand -8.0269 -52.8018
rfingers 7.12502
rthumb 17.883 -81.9996
lclavicle 3.77691e-015 3.97569e-016
lhumerus -21.4885 0.573684 80.1242
lradius 33.8188
lwrist 0.992575
lhand -25.41 -14.8789
lfingers 7.12502
lthumb 1.11554 15.0979
rfemur -46.511 3.40927 13.575
rtibia 15.4503
rfoot -12.2018 -11.2861
rtoes -38.0533
lfemur -15.0919 -10.2622 -23.9218
ltibia 13.1374
lfoot -14.608 -1.43231
ltoes -34.7498
269
root 8.61119 16.038 21.8544 -157.252 0.30312 178.175
lowerback -23.2693 -3.74191 -6.23107
upperback 2.56389 -3.24618 -0.18225
thorax 16.5433 -2.03173 2.13444
lowerneck 0.529052 -4.2723 -2.54948
upperneck 10.1587 -5.76282 6.06023
head 3.49825 -2.56564 2.29182
rclavicle -3.89618e-014 -1.70955e-014
rhumerus -41.1171 -24.5912 -70.8734
rradius 26.5096
rwrist 5.0321
rhand -8.24989 -52.912
rfingers 7.12502
rthumb 17.6684 -82.1292
lclavicle -3.89618e-014 -1.70955e-014
lhumerus -20.7437 0.39335 80.0972
lradius 33.879
lwrist 0.924102
lhand -25.7901 -14.7902
lfingers 7.12502
lthumb 0.748488 15.1883
rfemur -45.8653 3.98715 13.0986
rtibia 13.3215
rfoot -11.7626 -11.2823
rtoes -38.3575
lfemur -14.7848 -10.2703 -23.8898
ltibia 13.5726
lfoot -14.7853 -1.56413
ltoes -34.9258
270
root 8.62952 16.0203 21.7398 -157.458 0.0196623 178.118
lowerback -22.7604 -3.86432 -6.3063
upperback 2.36427 -3.4496 -0.0927678
thorax 16.0278 -2.1256 2.23468
lowerneck 0.781729 -4.39577 -2.47737
upperneck 10.1771 -5.9199 6.06947
head 3.46284 -2.63856 2.28106
rclavicle 1.19271e-014 6.75868e-015
rhumerus -41.8517 -24.7618 -70.2952
rradius 26.1261
rwrist 5.06915
rhand -8.5006 -52.7963
rfingers 7.12502
rthumb 17.4271 -82.0351
lclavicle 1.19271e-014 6.75868e-015
lhumerus -21.1018 0.473039 80.1278
lradius 34.0026
lwrist 1.2003
lhand -25.0999 -14.7463
lfingers 7.12502
lthumb 1.4151 15.2287
rfemur -45.0307 4.45236 12.6802
rtibia 11.4015
rfoot -11.2986 -11.2989
rtoes -38.3481
lfemur -14.2913 -10.3624 -23.9314
ltibia 13.9561
lfoot -14.8784 -1.48441
ltoes -36.3945
271
root 8.64714 16.0017 21.6212 -157.552 -0.403367 178.227
lowerback -22.8856 -3.99101 -6.23669
upperback 2.43169 -3.64205 0.0565261
thorax 16.2111 -2.21486 2.28916
lowerneck 0.743047 -4.38212 -2.54755
upperneck 10.1992 -5.90565 6.14097
head 3.48337 -2.63015 2.31814
rclavicle -1.59028e-015 -1.15295e-014
rhumerus -42.1186 -25.1129 -69.8812
rradius 25.706
rwrist 5.05357
rhand -8.82112 -52.8981
rfingers 7.12502
rthumb 17.1186 -82.1639
lclavicle -1.59028e-015 -1.15295e-014
lhumerus -20.8156 0.807817 80.1023
lradius 34.2705
lwrist 2.64976
lhand -22.5477 -13.7105
lfingers 7.12502
lthumb 3.87984 16.234
rfemur -44.3962 4.69284 12.6821
rtibia 9.98784
rfoot -11.0838 -11.3484
rtoes -39.3533
lfemur -13.9793 -10.4498 -23.7399
ltibia 14.4597
lfoot -15.068 -1.55136
ltoes -37.7136
